<svg width="49" height="52" viewBox="0 0 49 52" fill="none" xmlns="http://www.w3.org/2000/svg">
<ellipse cx="24" cy="25.2101" rx="24" ry="22.7899" fill="#BDFF00"/>
<g filter="url(#filter0_d_543_1383)">
<ellipse cx="24.2127" cy="25.0084" rx="19.9646" ry="18.958" fill="white"/>
<path d="M43.6773 25.0084C43.6773 35.1784 34.9873 43.4664 24.2127 43.4664C13.438 43.4664 4.74805 35.1784 4.74805 25.0084C4.74805 14.8384 13.438 6.55042 24.2127 6.55042C34.9873 6.55042 43.6773 14.8384 43.6773 25.0084Z" stroke="#191970"/>
</g>
<g filter="url(#filter1_d_543_1383)">
<path d="M27.6927 28.498C27.6927 27.8184 27.4056 27.2734 26.8314 26.8633C26.2571 26.4531 25.2786 26.084 23.8958 25.7559C22.513 25.4277 21.347 25.082 20.3978 24.7188C19.4603 24.3438 18.6868 23.9043 18.0775 23.4004C17.4681 22.8965 17.0169 22.3164 16.7239 21.6602C16.431 20.9922 16.2845 20.2012 16.2845 19.2871C16.2845 17.6816 16.8997 16.3281 18.1302 15.2266C19.3724 14.125 21.0247 13.4805 23.0872 13.293V9.47852H25.8997V13.3457C27.9857 13.6152 29.6204 14.3066 30.804 15.4199C31.9876 16.5332 32.5794 17.9395 32.5794 19.6387H27.4993C27.4993 18.8887 27.1946 18.2617 26.5853 17.7578C25.9876 17.2539 25.179 17.002 24.1595 17.002C23.2571 17.002 22.5247 17.2012 21.9622 17.5996C21.3997 17.998 21.1185 18.4961 21.1185 19.0938C21.1185 19.6914 21.4114 20.1777 21.9974 20.5527C22.5833 20.916 23.556 21.2676 24.9153 21.6074C27.6458 22.2051 29.597 23.0312 30.7689 24.0859C31.9525 25.1406 32.5442 26.5645 32.5442 28.3574C32.5442 30.0332 31.9466 31.3809 30.7513 32.4004C29.5677 33.4199 27.9505 34.0234 25.8997 34.2109V38.166H23.0872V34.2109C20.7669 33.9883 18.9329 33.2852 17.5853 32.1016C16.2493 30.9062 15.5814 29.3652 15.5814 27.4785H20.679C20.679 28.5684 21.013 29.3535 21.681 29.834C22.3607 30.3145 23.3743 30.5547 24.722 30.5547C25.636 30.5547 26.3567 30.3672 26.8841 29.9922C27.4232 29.6172 27.6927 29.1191 27.6927 28.498Z" fill="#191970"/>
</g>
<defs>
<filter id="filter0_d_543_1383" x="0.248047" y="6.05042" width="47.9297" height="45.916" filterUnits="userSpaceOnUse" color-interpolation-filters="sRGB">
<feFlood flood-opacity="0" result="BackgroundImageFix"/>
<feColorMatrix in="SourceAlpha" type="matrix" values="0 0 0 0 0 0 0 0 0 0 0 0 0 0 0 0 0 0 127 0" result="hardAlpha"/>
<feOffset dy="4"/>
<feGaussianBlur stdDeviation="2"/>
<feComposite in2="hardAlpha" operator="out"/>
<feColorMatrix type="matrix" values="0 0 0 0 0 0 0 0 0 0 0 0 0 0 0 0 0 0 0.25 0"/>
<feBlend mode="normal" in2="BackgroundImageFix" result="effect1_dropShadow_543_1383"/>
<feBlend mode="normal" in="SourceGraphic" in2="effect1_dropShadow_543_1383" result="shape"/>
</filter>
<filter id="filter1_d_543_1383" x="11.5811" y="9.47852" width="24.998" height="36.6875" filterUnits="userSpaceOnUse" color-interpolation-filters="sRGB">
<feFlood flood-opacity="0" result="BackgroundImageFix"/>
<feColorMatrix in="SourceAlpha" type="matrix" values="0 0 0 0 0 0 0 0 0 0 0 0 0 0 0 0 0 0 127 0" result="hardAlpha"/>
<feOffset dy="4"/>
<feGaussianBlur stdDeviation="2"/>
<feComposite in2="hardAlpha" operator="out"/>
<feColorMatrix type="matrix" values="0 0 0 0 0 0 0 0 0 0 0 0 0 0 0 0 0 0 0.25 0"/>
<feBlend mode="normal" in2="BackgroundImageFix" result="effect1_dropShadow_543_1383"/>
<feBlend mode="normal" in="SourceGraphic" in2="effect1_dropShadow_543_1383" result="shape"/>
</filter>
</defs>
</svg>