<svg width="56" height="57" viewBox="0 0 56 57" fill="none" xmlns="http://www.w3.org/2000/svg">
<path d="M28 56.5C12.5356 56.5 0 43.9644 0 28.5C0 13.0356 12.5356 0.5 28 0.5C43.4644 0.5 56 13.0356 56 28.5C56 43.9644 43.4644 56.5 28 56.5ZM28 50.9C33.9408 50.9 39.6384 48.54 43.8392 44.3392C48.04 40.1384 50.4 34.4408 50.4 28.5C50.4 22.5592 48.04 16.8616 43.8392 12.6608C39.6384 8.45999 33.9408 6.1 28 6.1C22.0592 6.1 16.3616 8.45999 12.1608 12.6608C7.95999 16.8616 5.6 22.5592 5.6 28.5C5.6 34.4408 7.95999 40.1384 12.1608 44.3392C16.3616 48.54 22.0592 50.9 28 50.9ZM18.2 34.1H33.6C33.9713 34.1 34.3274 33.9525 34.59 33.6899C34.8525 33.4274 35 33.0713 35 32.7C35 32.3287 34.8525 31.9726 34.59 31.71C34.3274 31.4475 33.9713 31.3 33.6 31.3H22.4C20.5435 31.3 18.763 30.5625 17.4503 29.2497C16.1375 27.937 15.4 26.1565 15.4 24.3C15.4 22.4435 16.1375 20.663 17.4503 19.3503C18.763 18.0375 20.5435 17.3 22.4 17.3H25.2V11.7H30.8V17.3H37.8V22.9H22.4C22.0287 22.9 21.6726 23.0475 21.41 23.31C21.1475 23.5726 21 23.9287 21 24.3C21 24.6713 21.1475 25.0274 21.41 25.2899C21.6726 25.5525 22.0287 25.7 22.4 25.7H33.6C35.4565 25.7 37.237 26.4375 38.5497 27.7503C39.8625 29.063 40.6 30.8435 40.6 32.7C40.6 34.5565 39.8625 36.337 38.5497 37.6497C37.237 38.9625 35.4565 39.7 33.6 39.7H30.8V45.3H25.2V39.7H18.2V34.1Z" fill="#BDFF00"/>
</svg>
