<svg width="49" height="52" viewBox="0 0 49 52" fill="none" xmlns="http://www.w3.org/2000/svg">
<ellipse cx="24" cy="25.2101" rx="24" ry="22.7899" fill="#232F95"/>
<g filter="url(#filter0_d_29_432)">
<ellipse cx="24.2124" cy="25.0084" rx="19.9646" ry="18.958" fill="white"/>
</g>
<g filter="url(#filter1_d_29_432)">
<path d="M27.6929 28.498C27.6929 27.8184 27.4058 27.2734 26.8316 26.8633C26.2574 26.4531 25.2789 26.084 23.8961 25.7559C22.5132 25.4277 21.3472 25.082 20.398 24.7188C19.4605 24.3438 18.6871 23.9043 18.0777 23.4004C17.4683 22.8965 17.0171 22.3164 16.7242 21.6602C16.4312 20.9922 16.2847 20.2012 16.2847 19.2871C16.2847 17.6816 16.9 16.3281 18.1304 15.2266C19.3726 14.125 21.025 13.4805 23.0875 13.293V9.47852H25.9V13.3457C27.9859 13.6152 29.6207 14.3066 30.8043 15.4199C31.9879 16.5332 32.5796 17.9395 32.5796 19.6387H27.4996C27.4996 18.8887 27.1949 18.2617 26.5855 17.7578C25.9879 17.2539 25.1793 17.002 24.1597 17.002C23.2574 17.002 22.525 17.2012 21.9625 17.5996C21.4 17.998 21.1187 18.4961 21.1187 19.0938C21.1187 19.6914 21.4117 20.1777 21.9976 20.5527C22.5836 20.916 23.5562 21.2676 24.9156 21.6074C27.6461 22.2051 29.5972 23.0312 30.7691 24.0859C31.9527 25.1406 32.5445 26.5645 32.5445 28.3574C32.5445 30.0332 31.9468 31.3809 30.7515 32.4004C29.5679 33.4199 27.9507 34.0234 25.9 34.2109V38.166H23.0875V34.2109C20.7671 33.9883 18.9332 33.2852 17.5855 32.1016C16.2496 30.9062 15.5816 29.3652 15.5816 27.4785H20.6793C20.6793 28.5684 21.0132 29.3535 21.6812 29.834C22.3609 30.3145 23.3746 30.5547 24.7222 30.5547C25.6363 30.5547 26.357 30.3672 26.8843 29.9922C27.4234 29.6172 27.6929 29.1191 27.6929 28.498Z" fill="#E61818"/>
</g>
<defs>
<filter id="filter0_d_29_432" x="0.247803" y="6.05042" width="47.9292" height="45.916" filterUnits="userSpaceOnUse" color-interpolation-filters="sRGB">
<feFlood flood-opacity="0" result="BackgroundImageFix"/>
<feColorMatrix in="SourceAlpha" type="matrix" values="0 0 0 0 0 0 0 0 0 0 0 0 0 0 0 0 0 0 127 0" result="hardAlpha"/>
<feOffset dy="4"/>
<feGaussianBlur stdDeviation="2"/>
<feComposite in2="hardAlpha" operator="out"/>
<feColorMatrix type="matrix" values="0 0 0 0 0 0 0 0 0 0 0 0 0 0 0 0 0 0 0.25 0"/>
<feBlend mode="normal" in2="BackgroundImageFix" result="effect1_dropShadow_29_432"/>
<feBlend mode="normal" in="SourceGraphic" in2="effect1_dropShadow_29_432" result="shape"/>
</filter>
<filter id="filter1_d_29_432" x="11.5815" y="9.47852" width="24.998" height="36.6875" filterUnits="userSpaceOnUse" color-interpolation-filters="sRGB">
<feFlood flood-opacity="0" result="BackgroundImageFix"/>
<feColorMatrix in="SourceAlpha" type="matrix" values="0 0 0 0 0 0 0 0 0 0 0 0 0 0 0 0 0 0 127 0" result="hardAlpha"/>
<feOffset dy="4"/>
<feGaussianBlur stdDeviation="2"/>
<feComposite in2="hardAlpha" operator="out"/>
<feColorMatrix type="matrix" values="0 0 0 0 0 0 0 0 0 0 0 0 0 0 0 0 0 0 0.25 0"/>
<feBlend mode="normal" in2="BackgroundImageFix" result="effect1_dropShadow_29_432"/>
<feBlend mode="normal" in="SourceGraphic" in2="effect1_dropShadow_29_432" result="shape"/>
</filter>
</defs>
</svg>
