<svg width="1773" height="392" viewBox="0 0 1773 392" fill="none" xmlns="http://www.w3.org/2000/svg">
<path d="M153.111 178.014C153.111 172.92 157.24 168.791 162.334 168.791H217.675C222.769 168.791 226.899 172.92 226.899 178.014V382.776C226.899 387.87 222.769 392 217.675 392H162.334C157.24 392 153.111 387.87 153.111 382.776V178.014Z" fill="#7A1C1C"/>
<path d="M153.111 21.2141C153.111 16.1201 157.24 11.9906 162.334 11.9906H217.675C222.769 11.9906 226.899 16.1201 226.899 21.2141V192.772C226.899 197.866 222.769 201.995 217.675 201.995H162.334C157.24 201.995 153.111 197.866 153.111 192.772V21.2141Z" fill="#B82C2C"/>
<path d="M153.111 242.579V168.791H370.786C375.88 168.791 380.009 172.92 380.009 178.014V233.355C380.009 238.449 375.88 242.579 370.786 242.579H153.111Z" fill="#7A1C1C"/>
<path d="M9.22353 242.579C4.12952 242.579 0 238.449 0 233.355L0 178.014C0 172.92 4.12951 168.791 9.22353 168.791H226.899V242.579H9.22353Z" fill="#B82C2C"/>
<path d="M153.111 168.791H226.899V242.579H153.111V168.791Z" fill="url(#paint0_linear_0_1)"/>
<path d="M169.713 166.024C169.713 160.929 173.842 156.8 178.936 156.8H234.278C239.372 156.8 243.501 160.93 243.501 166.024V370.786C243.501 375.88 239.372 380.009 234.278 380.009H178.936C173.842 380.009 169.713 375.88 169.713 370.786V166.024Z" fill="#BA2727"/>
<path d="M169.713 9.22353C169.713 4.12951 173.842 0 178.936 0L234.278 0C239.372 0 243.501 4.12951 243.501 9.22353V180.781C243.501 185.875 239.372 190.005 234.278 190.005H178.936C173.842 190.005 169.713 185.875 169.713 180.781V9.22353Z" fill="#E93636"/>
<path d="M169.713 230.588V156.8H387.388C392.482 156.8 396.612 160.93 396.612 166.024V221.365C396.612 226.459 392.482 230.588 387.388 230.588H169.713Z" fill="#BA2727"/>
<path d="M25.8258 230.588C20.7318 230.588 16.6023 226.459 16.6023 221.365L16.6023 166.024C16.6023 160.93 20.7318 156.8 25.8258 156.8H243.501V230.588H25.8258Z" fill="#E93636"/>
<path d="M169.713 156.8H243.501V230.588H169.713V156.8Z" fill="url(#paint1_linear_0_1)"/>
<path d="M581.502 210.328H500.502V294H458.315V89.25H591.627V123.422H500.502V176.297H581.502V210.328ZM656.315 294H615.534V141.844H656.315V294ZM613.143 102.469C613.143 96.375 615.159 91.3594 619.19 87.4219C623.315 83.4844 628.893 81.5156 635.924 81.5156C642.862 81.5156 648.393 83.4844 652.518 87.4219C656.643 91.3594 658.706 96.375 658.706 102.469C658.706 108.656 656.596 113.719 652.377 117.656C648.252 121.594 642.768 123.562 635.924 123.562C629.081 123.562 623.549 121.594 619.331 117.656C615.206 113.719 613.143 108.656 613.143 102.469ZM683.596 216.797C683.596 193.078 688.893 174.188 699.487 160.125C710.174 146.062 724.752 139.031 743.221 139.031C758.034 139.031 770.268 144.562 779.924 155.625V78H820.706V294H784.002L782.034 277.828C771.909 290.484 758.877 296.812 742.94 296.812C725.034 296.812 710.643 289.781 699.768 275.719C688.987 261.562 683.596 241.922 683.596 216.797ZM724.237 219.75C724.237 234 726.721 244.922 731.69 252.516C736.659 260.109 743.877 263.906 753.346 263.906C765.909 263.906 774.768 258.609 779.924 248.016V187.969C774.862 177.375 766.096 172.078 753.627 172.078C734.034 172.078 724.237 187.969 724.237 219.75ZM924.768 296.812C901.518 296.812 882.674 289.875 868.237 276C853.893 262.031 846.721 243.797 846.721 221.297V216.938C846.721 201.844 849.674 188.344 855.581 176.438C861.487 164.438 869.831 155.203 880.612 148.734C891.393 142.266 903.768 139.031 917.737 139.031C938.643 139.031 955.049 145.453 966.956 158.297C978.862 171.141 984.815 189.422 984.815 213.141V231.141H887.924C889.518 241.922 894.018 250.125 901.424 255.75C908.831 261.281 918.487 264.047 930.393 264.047C937.049 264.047 944.034 263.156 951.346 261.375C958.752 259.5 965.174 257.062 970.612 254.062L978.346 282.328C971.971 286.828 964.002 290.391 954.44 293.016C944.971 295.547 935.081 296.812 924.768 296.812ZM917.737 171.938C909.674 171.938 903.065 174.703 897.909 180.234C892.846 185.672 889.612 193.406 888.206 203.438H944.877V199.781C944.877 190.594 942.534 183.656 937.846 178.969C933.252 174.281 926.549 171.938 917.737 171.938ZM1050.91 294H1010.13V78H1050.91V294ZM1127.41 294H1086.63V141.844H1127.41V294ZM1084.24 102.469C1084.24 96.375 1086.25 91.3594 1090.28 87.4219C1094.41 83.4844 1099.99 81.5156 1107.02 81.5156C1113.96 81.5156 1119.49 83.4844 1123.61 87.4219C1127.74 91.3594 1129.8 96.375 1129.8 102.469C1129.8 108.656 1127.69 113.719 1123.47 117.656C1119.35 121.594 1113.86 123.562 1107.02 123.562C1100.17 123.562 1094.64 121.594 1090.42 117.656C1086.3 113.719 1084.24 108.656 1084.24 102.469ZM1154.69 216.797C1154.69 193.078 1159.99 174.188 1170.58 160.125C1181.27 146.062 1195.85 139.031 1214.31 139.031C1229.13 139.031 1241.36 144.562 1251.02 155.625V78H1291.8V294H1255.1L1253.13 277.828C1243 290.484 1229.97 296.812 1214.03 296.812C1196.13 296.812 1181.74 289.781 1170.86 275.719C1160.08 261.562 1154.69 241.922 1154.69 216.797ZM1195.33 219.75C1195.33 234 1197.81 244.922 1202.78 252.516C1207.75 260.109 1214.97 263.906 1224.44 263.906C1237 263.906 1245.86 258.609 1251.02 248.016V187.969C1245.96 177.375 1237.19 172.078 1224.72 172.078C1205.13 172.078 1195.33 187.969 1195.33 219.75ZM1411.47 294C1409.6 290.344 1408.24 285.797 1407.39 280.359C1397.55 291.328 1384.75 296.812 1369 296.812C1354.1 296.812 1341.72 292.5 1331.88 283.875C1322.13 275.25 1317.25 264.375 1317.25 251.25C1317.25 235.125 1323.21 222.75 1335.11 214.125C1347.11 205.5 1364.41 201.141 1387 201.047H1405.71V192.328C1405.71 185.297 1403.88 179.672 1400.22 175.453C1396.66 171.234 1390.99 169.125 1383.21 169.125C1376.36 169.125 1370.97 170.766 1367.03 174.047C1363.19 177.328 1361.27 181.828 1361.27 187.547H1320.63C1320.63 178.734 1323.35 170.578 1328.78 163.078C1334.22 155.578 1341.91 149.719 1351.85 145.5C1361.78 141.188 1372.94 139.031 1385.31 139.031C1404.06 139.031 1418.92 143.766 1429.89 153.234C1440.96 162.609 1446.49 175.828 1446.49 192.891V258.844C1446.58 273.281 1448.6 284.203 1452.53 291.609V294H1411.47ZM1377.86 265.734C1383.86 265.734 1389.39 264.422 1394.46 261.797C1399.52 259.078 1403.27 255.469 1405.71 250.969V224.812H1390.52C1370.17 224.812 1359.35 231.844 1358.03 245.906L1357.89 248.297C1357.89 253.359 1359.67 257.531 1363.24 260.812C1366.8 264.094 1371.67 265.734 1377.86 265.734ZM1471.38 216.797C1471.38 193.078 1476.67 174.188 1487.27 160.125C1497.96 146.062 1512.53 139.031 1531 139.031C1545.81 139.031 1558.05 144.562 1567.71 155.625V78H1608.49V294H1571.78L1569.81 277.828C1559.69 290.484 1546.66 296.812 1530.72 296.812C1512.81 296.812 1498.42 289.781 1487.55 275.719C1476.77 261.562 1471.38 241.922 1471.38 216.797ZM1512.02 219.75C1512.02 234 1514.5 244.922 1519.47 252.516C1524.44 260.109 1531.66 263.906 1541.13 263.906C1553.69 263.906 1562.55 258.609 1567.71 248.016V187.969C1562.64 177.375 1553.88 172.078 1541.41 172.078C1521.81 172.078 1512.02 187.969 1512.02 219.75ZM1712.55 296.812C1689.3 296.812 1670.46 289.875 1656.02 276C1641.67 262.031 1634.5 243.797 1634.5 221.297V216.938C1634.5 201.844 1637.46 188.344 1643.36 176.438C1649.27 164.438 1657.61 155.203 1668.39 148.734C1679.17 142.266 1691.55 139.031 1705.52 139.031C1726.42 139.031 1742.83 145.453 1754.74 158.297C1766.64 171.141 1772.6 189.422 1772.6 213.141V231.141H1675.71C1677.3 241.922 1681.8 250.125 1689.21 255.75C1696.61 261.281 1706.27 264.047 1718.17 264.047C1724.83 264.047 1731.81 263.156 1739.13 261.375C1746.53 259.5 1752.96 257.062 1758.39 254.062L1766.13 282.328C1759.75 286.828 1751.78 290.391 1742.22 293.016C1732.75 295.547 1722.86 296.812 1712.55 296.812ZM1705.52 171.938C1697.46 171.938 1690.85 174.703 1685.69 180.234C1680.63 185.672 1677.39 193.406 1675.99 203.438H1732.66V199.781C1732.66 190.594 1730.31 183.656 1725.63 178.969C1721.03 174.281 1714.33 171.938 1705.52 171.938Z" fill="url(#paint2_linear_0_1)"/>
<defs>
<linearGradient id="paint0_linear_0_1" x1="153.111" y1="168.791" x2="226.899" y2="242.579" gradientUnits="userSpaceOnUse">
<stop offset="0.471806" stop-color="#BA2727"/>
<stop offset="0.507261" stop-color="#7A1C1C"/>
</linearGradient>
<linearGradient id="paint1_linear_0_1" x1="169.713" y1="156.8" x2="243.501" y2="230.588" gradientUnits="userSpaceOnUse">
<stop offset="0.471806" stop-color="#E93636"/>
<stop offset="0.507261" stop-color="#BA2727"/>
</linearGradient>
<linearGradient id="paint2_linear_0_1" x1="439.612" y1="27" x2="1771.61" y2="294" gradientUnits="userSpaceOnUse">
<stop stop-color="#9C88FF"/>
<stop offset="1" stop-color="#232F95"/>
</linearGradient>
</defs>
</svg>
