<svg width="490" height="140" viewBox="0 0 490 140" fill="none" xmlns="http://www.w3.org/2000/svg">
<path d="M69.4853 105C98.196 105 121.471 82.3904 121.471 54.5C121.471 26.6096 98.196 4 69.4853 4C40.7746 4 17.5 26.6096 17.5 54.5C17.5 82.3904 40.7746 105 69.4853 105Z" fill="#191970"/>
<g filter="url(#filter0_i_546_642)">
<path d="M69.7918 84H59.4837C58.0983 84 57.1008 83.6957 56.4912 83.0871C55.937 82.4786 55.6598 81.5104 55.6598 80.1826V67.0705H42.9411C41.611 67.0705 40.6413 66.794 40.0316 66.2407C39.422 65.6321 39.1172 64.6363 39.1172 63.2531V53.7925C39.1172 53.0733 39.2003 52.4647 39.3666 51.9668C39.5883 51.4689 39.8931 51.0539 40.281 50.722L51.0046 41.6763C51.2818 41.455 51.6419 41.289 52.0853 41.1784C52.584 41.0125 53.1106 40.9295 53.6647 40.9295H55.6598V36.8631C55.6598 36.1438 55.7429 35.5353 55.9092 35.0373C56.0754 34.5394 56.3248 34.1521 56.6573 33.8755L56.7405 33.7925L67.5472 24.7469C67.8244 24.5255 68.1845 24.3596 68.628 24.249C69.0713 24.083 69.5977 24 70.2073 24H80.5154C81.8454 24 82.8152 24.3043 83.4249 24.9129C84.0344 25.5214 84.3393 26.4896 84.3393 27.8174V40.9295H97.058C98.388 40.9295 99.3578 41.2338 99.9675 41.8423C100.577 42.3956 100.882 43.3637 100.882 44.7469V54.2075C100.882 54.9267 100.771 55.5353 100.549 56.0332C100.383 56.5311 100.106 56.9461 99.7181 57.278L88.9945 66.3237C88.662 66.545 88.274 66.7386 87.8307 66.9046C87.3873 67.0152 86.8885 67.0705 86.3344 67.0705H84.3393V71.1369C84.3393 71.8562 84.2284 72.4647 84.0068 72.9627C83.8404 73.4606 83.5633 73.8755 83.1755 74.2075L72.4519 83.2531C72.1194 83.4745 71.7314 83.6404 71.2881 83.751C70.8447 83.917 70.3459 84 69.7918 84ZM83.508 71.1369V57.195H97.058C98.1109 57.195 98.859 56.9737 99.3024 56.5311C99.8012 56.0332 100.051 55.2587 100.051 54.2075V44.7469C100.051 43.6957 99.8012 42.9488 99.3024 42.5062C98.859 42.0083 98.1109 41.7593 97.058 41.7593H83.508V27.8174C83.508 26.7662 83.2586 26.0193 82.7598 25.5768C82.3164 25.0788 81.5683 24.8299 80.5154 24.8299H70.2073C69.1544 24.8299 68.3786 25.0788 67.8798 25.5768C67.4364 26.0193 67.2147 26.7662 67.2147 27.8174V41.7593H53.6647C52.6118 41.7593 51.8359 42.0083 51.3371 42.5062C50.8938 42.9488 50.6721 43.6957 50.6721 44.7469V54.2075C50.6721 55.2587 50.8938 56.0332 51.3371 56.5311C51.8359 56.9737 52.6118 57.195 53.6647 57.195H67.2147V71.1369C67.2147 72.1882 67.4364 72.9627 67.8798 73.4606C68.3786 73.9031 69.1544 74.1245 70.2073 74.1245H80.5154C81.5683 74.1245 82.3164 73.9031 82.7598 73.4606C83.2586 72.9627 83.508 72.1882 83.508 71.1369ZM74.9458 66.6556V49.8921H58.1536V49.0622H74.9458V32.2988H75.777V49.0622H92.5689V49.8921H75.777V66.6556H74.9458Z" fill="#BDFF00"/>
</g>
<path d="M158.024 61.0026C158.024 61.8551 157.269 62.2814 155.759 62.2814C154.249 62.2814 153.494 62.0007 153.494 61.4391V56.7293H143.461V73.9782H150.224C150.769 73.9782 151.042 74.6124 151.042 75.8809C151.042 76.879 150.884 77.5444 150.57 77.8771C150.255 78.2098 149.982 78.3762 149.752 78.3762H131.73C131.164 78.3762 130.881 77.7627 130.881 76.5358C130.902 75.4754 131.164 74.6956 131.668 74.1965C131.835 74.0301 132.171 73.947 132.674 73.947H132.768C132.852 73.9677 132.946 73.9782 133.051 73.9782C133.534 73.9782 134.026 73.947 134.529 73.8846C135.137 73.843 135.609 73.7702 135.945 73.6662C136.532 73.4792 136.825 73.136 136.825 72.6369V36.2677C136.825 35.9765 136.7 35.831 136.448 35.831H131.289C130.702 35.831 130.304 35.2903 130.095 34.209C130.052 33.9179 130.021 33.6476 130 33.398C130 32.088 130.273 31.433 130.818 31.433H165.415V40.5097C165.415 41.2167 164.681 41.5702 163.213 41.5702C161.724 41.5702 160.979 41.3414 160.979 40.884C160.979 39.1373 160.749 38.0144 160.288 37.5153C159.47 36.6627 157.981 36.2364 155.822 36.2364H143.461V51.9258H151.45C152.415 51.9258 152.981 51.697 153.148 51.2396C153.421 50.5741 153.558 49.2329 153.558 47.2158C153.558 46.7376 154.186 46.4985 155.444 46.4985C156.535 46.4985 157.237 46.644 157.551 46.9352C157.867 47.2263 158.024 47.4654 158.024 47.6526V61.0026ZM183.304 38.7006C181.354 38.7006 180.022 37.848 179.31 36.1429C179.101 35.6231 178.996 35.0512 178.996 34.4274C178.996 32.4519 179.865 31.1106 181.606 30.4037C182.13 30.1958 182.697 30.0918 183.304 30.0918C184.52 30.0918 185.538 30.5077 186.355 31.3394C187.193 32.1504 187.613 33.1798 187.613 34.4274C187.613 35.6542 187.193 36.6836 186.355 37.5153C185.558 38.3055 184.541 38.7006 183.304 38.7006ZM175.818 78.3762C175.274 78.3762 175.001 77.742 175.001 76.4735C175.001 75.4754 175.158 74.81 175.473 74.4773C175.787 74.1445 176.06 73.9782 176.291 73.9782H176.606C179.058 73.9782 180.442 73.7391 180.757 73.2608C180.862 73.1152 180.914 72.9385 180.914 72.7306V51.9569H175.379C174.771 51.9362 174.361 51.406 174.152 50.3662C174.11 50.0751 174.089 49.7736 174.089 49.4616C174.089 48.5051 174.372 47.9229 174.938 47.7149C175.504 47.4862 176.248 47.2991 177.171 47.1535C178.094 47.0079 179.058 46.8935 180.065 46.8104C181.994 46.644 183.849 46.5505 185.631 46.5297H185.664C186.544 46.5297 187.005 47.4135 187.047 49.1809V73.9782H192.331C192.876 73.9782 193.148 74.6124 193.148 75.8809C193.148 76.879 192.991 77.5444 192.676 77.8771C192.362 78.2098 192.09 78.3762 191.859 78.3762H175.818ZM235.57 73.9782C236.116 73.9782 236.388 74.6124 236.388 75.8809C236.388 76.8166 236.23 77.4612 235.916 77.8147C235.601 78.1683 235.361 78.3554 235.193 78.3762C235.046 78.3762 234.753 78.3969 234.312 78.4386C233.892 78.5009 233.348 78.5633 232.677 78.6257C230.853 78.7921 229.437 78.8752 228.431 78.8752C227.403 78.8752 226.743 78.8336 226.45 78.7505C226.156 78.6881 225.904 78.5633 225.695 78.3762C225.296 78.0435 224.898 77.326 224.499 76.224C221.941 78.0746 218.933 79 215.472 79C211.405 79 208.27 77.482 206.069 74.446C203.951 71.5348 202.892 67.5215 202.892 62.4061V62.3125C202.892 57.3219 204.454 53.3814 207.579 50.491C210.43 47.8501 214.11 46.5297 218.618 46.5297C220.735 46.5297 222.581 46.7376 224.153 47.1535V34.4274H218.618C218.01 34.4274 217.601 33.9179 217.392 32.899C217.35 32.6078 217.328 32.2959 217.328 31.9632C217.328 30.9651 217.611 30.362 218.178 30.1541C218.743 29.9462 219.488 29.7695 220.411 29.6238C221.333 29.4783 222.298 29.3639 223.305 29.2808C225.233 29.1144 227.089 29.0209 228.871 29H228.903C229.783 29 230.244 29.8838 230.286 31.6513V73.9782H235.57ZM216.322 74.1965C219.027 74.1965 221.637 73.1568 224.153 71.0774V53.3606C222.413 52.0089 220.442 51.3331 218.24 51.3331C214.319 51.3331 211.625 53.2151 210.157 56.9788C209.612 58.4136 209.34 60.2227 209.34 62.4061C209.34 64.5895 209.56 66.4298 210 67.927C210.44 69.4034 210.996 70.6095 211.667 71.5452C212.967 73.3128 214.518 74.1965 216.322 74.1965ZM245.377 62.3437C245.377 59.7653 245.807 57.4779 246.666 55.4816C247.505 53.527 248.637 51.8842 250.063 50.5534C252.957 47.8917 256.532 46.5505 260.788 46.5297H260.882C264.782 46.5297 267.792 47.7461 269.909 50.1791C272.027 52.5912 273.086 56.0742 273.086 60.6283C273.086 61.6055 272.635 62.4478 271.733 63.1547C270.852 63.8409 269.741 64.184 268.4 64.184H251.824C252.202 69.0499 253.911 72.169 256.951 73.5414C257.915 73.9782 258.932 74.1965 260.002 74.1965C261.071 74.1965 262.025 74.0821 262.864 73.8535C263.702 73.6039 264.51 73.3024 265.286 72.9489C266.062 72.5746 266.816 72.1586 267.55 71.7012C269.081 70.7447 269.983 70.2664 270.254 70.2664C270.506 70.2871 270.779 70.4119 271.073 70.6407C271.324 70.8902 271.576 71.1814 271.827 71.514C272.373 72.3043 272.656 72.9696 272.677 73.5103V73.5727C272.677 74.0717 272.561 74.4044 272.331 74.5708C268.493 77.5236 264.132 79 259.247 79C254.865 79 251.447 77.482 248.993 74.446C246.583 71.4933 245.377 67.4591 245.377 62.3437ZM266.638 59.5054V59.3806C266.638 55.2633 265.433 52.7264 263.021 51.7699C262.266 51.4787 261.428 51.3331 260.505 51.3331C259.582 51.3331 258.618 51.4995 257.611 51.8322C256.605 52.1857 255.682 52.6951 254.844 53.3606C252.978 54.8786 251.971 56.9268 251.824 59.5054H266.638ZM283.553 78.3762C283.007 78.3762 282.735 77.742 282.735 76.4735C282.735 75.4754 282.892 74.81 283.206 74.4773C283.521 74.1445 283.794 73.9782 284.025 73.9782H284.339C286.771 73.9782 288.145 73.7391 288.459 73.2608C288.585 73.0944 288.648 72.8865 288.648 72.6369V34.4274H283.113C282.525 34.4066 282.126 33.8764 281.917 32.8366C281.875 32.5454 281.844 32.2439 281.823 31.9321C281.823 30.9755 282.106 30.3933 282.672 30.1854C283.239 29.9566 283.982 29.7695 284.905 29.6238C285.848 29.4783 286.824 29.3639 287.83 29.2808C289.759 29.1144 291.604 29.0209 293.365 29C294.246 29 294.707 29.8838 294.749 31.6513C294.749 32.1712 294.759 32.7118 294.781 33.2733V73.9782H300.064C300.61 73.9782 300.883 74.6124 300.883 75.8809C300.883 76.879 300.726 77.5444 300.411 77.8771C300.097 78.2098 299.824 78.3762 299.593 78.3762H283.553ZM318.331 38.7006C316.382 38.7006 315.05 37.848 314.338 36.1429C314.127 35.6231 314.023 35.0512 314.023 34.4274C314.023 32.4519 314.893 31.1106 316.633 30.4037C317.158 30.1958 317.723 30.0918 318.331 30.0918C319.548 30.0918 320.565 30.5077 321.383 31.3394C322.221 32.1504 322.641 33.1798 322.641 34.4274C322.641 35.6542 322.221 36.6836 321.383 37.5153C320.586 38.3055 319.568 38.7006 318.331 38.7006ZM310.846 78.3762C310.301 78.3762 310.028 77.742 310.028 76.4735C310.028 75.4754 310.185 74.81 310.5 74.4773C310.815 74.1445 311.087 73.9782 311.318 73.9782H311.632C314.086 73.9782 315.469 73.7391 315.784 73.2608C315.889 73.1152 315.941 72.9385 315.941 72.7306V51.9569H310.406C309.798 51.9362 309.389 51.406 309.179 50.3662C309.137 50.0751 309.116 49.7736 309.116 49.4616C309.116 48.5051 309.399 47.9229 309.966 47.7149C310.531 47.4862 311.276 47.2991 312.198 47.1535C313.121 47.0079 314.086 46.8935 315.093 46.8104C317.021 46.644 318.877 46.5505 320.659 46.5297H320.69C321.571 46.5297 322.032 47.4135 322.074 49.1809V73.9782H327.358C327.904 73.9782 328.176 74.6124 328.176 75.8809C328.176 76.879 328.018 77.5444 327.704 77.8771C327.389 78.2098 327.117 78.3762 326.886 78.3762H310.846ZM370.597 73.9782C371.143 73.9782 371.415 74.6124 371.415 75.8809C371.415 76.8166 371.258 77.4612 370.943 77.8147C370.629 78.1683 370.388 78.3554 370.22 78.3762C370.074 78.3762 369.78 78.3969 369.339 78.4386C368.92 78.5009 368.375 78.5633 367.704 78.6257C365.88 78.7921 364.465 78.8752 363.458 78.8752C362.431 78.8752 361.771 78.8336 361.477 78.7505C361.183 78.6881 360.931 78.5633 360.722 78.3762C360.323 78.0435 359.925 77.326 359.526 76.224C356.969 78.0746 353.96 79 350.5 79C346.432 79 343.297 77.482 341.096 74.446C338.979 71.5348 337.92 67.5215 337.92 62.4061V62.3125C337.92 57.3219 339.482 53.3814 342.606 50.491C345.457 47.8501 349.138 46.5297 353.646 46.5297C355.763 46.5297 357.608 46.7376 359.181 47.1535V34.4274H353.646C353.038 34.4274 352.628 33.9179 352.419 32.899C352.376 32.6078 352.355 32.2959 352.355 31.9632C352.355 30.9651 352.639 30.362 353.205 30.1541C353.771 29.9462 354.515 29.7695 355.438 29.6238C356.361 29.4783 357.325 29.3639 358.332 29.2808C360.261 29.1144 362.116 29.0209 363.898 29H363.929C364.81 29 365.272 29.8838 365.313 31.6513V73.9782H370.597ZM351.349 74.1965C354.054 74.1965 356.665 73.1568 359.181 71.0774V53.3606C357.441 52.0089 355.469 51.3331 353.268 51.3331C349.347 51.3331 346.653 53.2151 345.184 56.9788C344.64 58.4136 344.367 60.2227 344.367 62.4061C344.367 64.5895 344.588 66.4298 345.027 67.927C345.468 69.4034 346.024 70.6095 346.694 71.5452C347.994 73.3128 349.546 74.1965 351.349 74.1965ZM389.746 50.9277C389.997 51.4683 390.123 52.0817 390.123 52.768C390.123 53.4541 390.018 54.0572 389.808 54.577C389.557 55.0969 389.243 55.544 388.865 55.9183C388.068 56.7085 387.051 57.114 385.814 57.1348C383.864 57.1348 382.533 56.2822 381.82 54.577C381.61 54.0572 381.505 53.4126 381.505 52.6432C381.505 51.8946 381.725 51.1876 382.165 50.5222C382.606 49.8568 383.183 49.2849 383.895 48.8066C384.629 48.3283 385.447 47.9437 386.349 47.6526C387.271 47.3615 388.204 47.1327 389.148 46.9663C390.805 46.6752 392.618 46.5297 394.589 46.5297C396.539 46.5297 398.227 46.8415 399.652 47.4654C401.1 48.0892 402.242 48.9314 403.081 49.9919C404.527 51.8426 405.251 54.4627 405.251 57.8522V73.9782H410.535C411.101 73.9782 411.384 74.5916 411.384 75.8185C411.384 76.3592 411.279 76.8997 411.069 77.4404C410.86 77.9602 410.535 78.2722 410.094 78.3762C408.921 78.7088 407.243 78.8752 405.062 78.8752C402.861 78.8752 401.634 78.8336 401.382 78.7505C401.131 78.6881 400.9 78.5633 400.691 78.3762C400.292 78.0226 399.894 77.3053 399.495 76.224C396.937 78.0746 393.855 79 390.249 79C387.019 79 384.482 78.1474 382.637 76.4423C380.897 74.862 380.027 72.7928 380.027 70.2352V70.1416C380.027 66.9601 381.211 64.4751 383.581 62.6868C385.657 61.1065 388.246 60.3163 391.349 60.3163H399.118C399.118 56.8437 398.824 54.6083 398.237 53.6101C397.672 52.5912 396.979 51.8946 396.162 51.5204C395.365 51.1252 394.295 50.9277 392.953 50.9277H389.746ZM391.381 74.1965C394.023 74.1965 396.602 73.1568 399.118 71.0774V64.9951H392.262C390.584 64.9951 389.347 65.2757 388.55 65.8372C387.104 66.8353 386.38 67.9895 386.38 69.2994C386.38 71.7532 387.408 73.2919 389.462 73.9157C390.07 74.103 390.71 74.1965 391.381 74.1965ZM452.485 73.9782C453.03 73.9782 453.303 74.6124 453.303 75.8809C453.303 76.8166 453.145 77.4612 452.831 77.8147C452.516 78.1683 452.275 78.3554 452.107 78.3762C451.96 78.3762 451.667 78.3969 451.227 78.4386C450.807 78.5009 450.262 78.5633 449.591 78.6257C447.767 78.7921 446.351 78.8752 445.345 78.8752C444.317 78.8752 443.657 78.8336 443.364 78.7505C443.07 78.6881 442.819 78.5633 442.609 78.3762C442.211 78.0435 441.812 77.326 441.414 76.224C438.855 78.0746 435.847 79 432.387 79C428.32 79 425.185 77.482 422.984 74.446C420.865 71.5348 419.806 67.5215 419.806 62.4061V62.3125C419.806 57.3219 421.368 53.3814 424.493 50.491C427.345 47.8501 431.024 46.5297 435.532 46.5297C437.65 46.5297 439.495 46.7376 441.068 47.1535V34.4274H435.532C434.924 34.4274 434.516 33.9179 434.306 32.899C434.264 32.6078 434.243 32.2959 434.243 31.9632C434.243 30.9651 434.526 30.362 435.092 30.1541C435.658 29.9462 436.403 29.7695 437.326 29.6238C438.248 29.4783 439.213 29.3639 440.219 29.2808C442.147 29.1144 444.003 29.0209 445.786 29H445.817C446.698 29 447.159 29.8838 447.201 31.6513V73.9782H452.485ZM433.236 74.1965C435.942 74.1965 438.551 73.1568 441.068 71.0774V53.3606C439.327 52.0089 437.357 51.3331 435.155 51.3331C431.234 51.3331 428.539 53.2151 427.072 56.9788C426.526 58.4136 426.255 60.2227 426.255 62.4061C426.255 64.5895 426.474 66.4298 426.915 67.927C427.355 69.4034 427.91 70.6095 428.582 71.5452C429.882 73.3128 431.433 74.1965 433.236 74.1965ZM462.292 62.3437C462.292 59.7653 462.721 57.4779 463.581 55.4816C464.419 53.527 465.551 51.8842 466.978 50.5534C469.871 47.8917 473.446 46.5505 477.702 46.5297H477.797C481.697 46.5297 484.706 47.7461 486.824 50.1791C488.941 52.5912 490 56.0742 490 60.6283C490 61.6055 489.549 62.4478 488.647 63.1547C487.767 63.8409 486.656 64.184 485.314 64.184H468.739C469.116 69.0499 470.825 72.169 473.866 73.5414C474.83 73.9782 475.847 74.1965 476.916 74.1965C477.986 74.1965 478.939 74.0821 479.779 73.8535C480.617 73.6039 481.424 73.3024 482.2 72.9489C482.976 72.5746 483.731 72.1586 484.465 71.7012C485.995 70.7447 486.897 70.2664 487.17 70.2664C487.421 70.2871 487.693 70.4119 487.987 70.6407C488.239 70.8902 488.49 71.1814 488.742 71.514C489.287 72.3043 489.57 72.9696 489.591 73.5103V73.5727C489.591 74.0717 489.476 74.4044 489.245 74.5708C485.409 77.5236 481.047 79 476.161 79C471.779 79 468.361 77.482 465.909 74.446C463.497 71.4933 462.292 67.4591 462.292 62.3437ZM483.553 59.5054V59.3806C483.553 55.2633 482.347 52.7264 479.936 51.7699C479.181 51.4787 478.342 51.3331 477.419 51.3331C476.497 51.3331 475.532 51.4995 474.526 51.8322C473.519 52.1857 472.597 52.6951 471.758 53.3606C469.892 54.8786 468.886 56.9268 468.739 59.5054H483.553Z" fill="#191970"/>
<path d="M145.461 133.363H140.702L139.798 136H136.911L141.815 123.203H144.33L149.261 136H146.376L145.461 133.363ZM141.435 131.228H144.728L143.073 126.438L141.435 131.228ZM166.295 132.643C166.295 132.145 166.113 131.764 165.751 131.5C165.39 131.23 164.738 130.949 163.797 130.656C162.856 130.357 162.111 130.064 161.562 129.777C160.067 128.992 159.318 127.935 159.318 126.604C159.318 125.913 159.518 125.298 159.915 124.759C160.32 124.214 160.896 123.789 161.644 123.484C162.398 123.18 163.242 123.027 164.177 123.027C165.118 123.027 165.957 123.194 166.693 123.528C167.428 123.856 167.998 124.322 168.403 124.926C168.813 125.529 169.017 126.215 169.017 126.982H166.304C166.304 126.396 166.113 125.942 165.734 125.62C165.354 125.292 164.82 125.128 164.132 125.128C163.469 125.128 162.953 125.266 162.585 125.541C162.217 125.811 162.033 126.168 162.033 126.613C162.033 127.029 162.247 127.378 162.675 127.659C163.11 127.94 163.746 128.204 164.585 128.45C166.129 128.901 167.253 129.461 167.959 130.129C168.665 130.797 169.017 131.629 169.017 132.625C169.017 133.732 168.586 134.603 167.723 135.235C166.862 135.862 165.701 136.176 164.241 136.176C163.227 136.176 162.305 135.997 161.472 135.64C160.64 135.276 160.003 134.781 159.563 134.154C159.129 133.527 158.912 132.801 158.912 131.975H161.635C161.635 133.387 162.503 134.093 164.241 134.093C164.886 134.093 165.39 133.967 165.751 133.715C166.113 133.457 166.295 133.1 166.295 132.643ZM178.733 135.033C178.088 135.795 177.195 136.176 176.055 136.176C175.006 136.176 174.204 135.883 173.649 135.297C173.099 134.711 172.819 133.853 172.807 132.722V126.49H175.421V132.634C175.421 133.624 175.886 134.119 176.815 134.119C177.702 134.119 178.311 133.82 178.642 133.223V126.49H181.266V136H178.805L178.733 135.033ZM190.765 136C190.644 135.771 190.557 135.487 190.502 135.147C189.869 135.833 189.046 136.176 188.032 136.176C187.073 136.176 186.277 135.906 185.643 135.367C185.017 134.828 184.703 134.148 184.703 133.328C184.703 132.32 185.086 131.547 185.851 131.008C186.623 130.469 187.736 130.196 189.19 130.19H190.393V129.646C190.393 129.206 190.276 128.854 190.041 128.591C189.812 128.327 189.446 128.195 188.946 128.195C188.505 128.195 188.158 128.298 187.905 128.503C187.658 128.708 187.535 128.989 187.535 129.347H184.92C184.92 128.796 185.095 128.286 185.445 127.817C185.795 127.349 186.289 126.982 186.928 126.719C187.567 126.449 188.285 126.314 189.082 126.314C190.288 126.314 191.245 126.61 191.95 127.202C192.661 127.788 193.017 128.614 193.017 129.681V133.803C193.023 134.705 193.153 135.388 193.406 135.851V136H190.765ZM188.602 134.233C188.988 134.233 189.344 134.151 189.67 133.987C189.996 133.817 190.237 133.592 190.393 133.311V131.676H189.416C188.108 131.676 187.411 132.115 187.327 132.994L187.317 133.144C187.317 133.46 187.432 133.721 187.661 133.926C187.891 134.131 188.204 134.233 188.602 134.233ZM214.185 131.737C214.082 133.114 213.558 134.198 212.611 134.989C211.67 135.78 210.428 136.176 208.883 136.176C207.194 136.176 205.864 135.625 204.893 134.523C203.928 133.416 203.445 131.898 203.445 129.971V129.188C203.445 127.958 203.668 126.874 204.115 125.937C204.561 124.999 205.198 124.281 206.024 123.783C206.857 123.279 207.821 123.027 208.92 123.027C210.439 123.027 211.664 123.423 212.592 124.214C213.522 125.005 214.058 126.115 214.203 127.545H211.489C211.422 126.719 211.184 126.121 210.775 125.752C210.37 125.377 209.751 125.189 208.92 125.189C208.015 125.189 207.336 125.506 206.883 126.139C206.438 126.766 206.208 127.741 206.196 129.065V130.032C206.196 131.415 206.41 132.426 206.838 133.064C207.272 133.703 207.954 134.022 208.883 134.022C209.721 134.022 210.346 133.838 210.756 133.469C211.172 133.094 211.411 132.517 211.47 131.737H214.185ZM223.647 136C223.526 135.771 223.439 135.487 223.385 135.147C222.752 135.833 221.928 136.176 220.914 136.176C219.956 136.176 219.159 135.906 218.526 135.367C217.899 134.828 217.585 134.148 217.585 133.328C217.585 132.32 217.968 131.547 218.734 131.008C219.506 130.469 220.619 130.196 222.072 130.19H223.276V129.646C223.276 129.206 223.158 128.854 222.924 128.591C222.694 128.327 222.329 128.195 221.828 128.195C221.388 128.195 221.041 128.298 220.788 128.503C220.541 128.708 220.417 128.989 220.417 129.347H217.802C217.802 128.796 217.977 128.286 218.327 127.817C218.677 127.349 219.171 126.982 219.811 126.719C220.45 126.449 221.167 126.314 221.964 126.314C223.171 126.314 224.126 126.61 224.832 127.202C225.543 127.788 225.9 128.614 225.9 129.681V133.803C225.906 134.705 226.036 135.388 226.289 135.851V136H223.647ZM221.485 134.233C221.871 134.233 222.227 134.151 222.552 133.987C222.878 133.817 223.119 133.592 223.276 133.311V131.676H222.299C220.99 131.676 220.293 132.115 220.209 132.994L220.2 133.144C220.2 133.46 220.314 133.721 220.544 133.926C220.773 134.131 221.086 134.233 221.485 134.233ZM235.262 128.872C234.906 128.825 234.593 128.802 234.321 128.802C233.332 128.802 232.683 129.127 232.376 129.777V136H229.761V126.49H232.232L232.304 127.624C232.829 126.751 233.555 126.314 234.484 126.314C234.773 126.314 235.045 126.353 235.298 126.429L235.262 128.872ZM241.965 124.152V126.49H243.638V128.354H241.965V133.1C241.965 133.451 242.034 133.703 242.173 133.855C242.312 134.008 242.577 134.084 242.969 134.084C243.259 134.084 243.515 134.063 243.738 134.022V135.947C243.226 136.1 242.698 136.176 242.155 136.176C240.321 136.176 239.386 135.276 239.35 133.478V128.354H237.92V126.49H239.35V124.152H241.965ZM251.454 136.176C250.018 136.176 248.848 135.748 247.943 134.893C247.045 134.037 246.595 132.897 246.595 131.474V131.228C246.595 130.272 246.785 129.42 247.165 128.67C247.545 127.914 248.082 127.334 248.775 126.93C249.475 126.52 250.272 126.314 251.165 126.314C252.503 126.314 253.556 126.725 254.322 127.545C255.094 128.365 255.48 129.528 255.48 131.034V132.071H249.246C249.33 132.692 249.584 133.19 250.006 133.565C250.435 133.94 250.974 134.128 251.626 134.128C252.632 134.128 253.42 133.773 253.987 133.064L255.272 134.462C254.88 135.001 254.348 135.423 253.679 135.728C253.01 136.026 252.268 136.176 251.454 136.176ZM251.155 128.371C250.636 128.371 250.214 128.541 249.888 128.881C249.569 129.221 249.364 129.707 249.273 130.34H252.91V130.138C252.898 129.575 252.742 129.142 252.44 128.837C252.138 128.526 251.71 128.371 251.155 128.371ZM261.585 136H258.961V126.49H261.585V136ZM258.808 124.029C258.808 123.648 258.938 123.335 259.197 123.089C259.462 122.843 259.821 122.72 260.274 122.72C260.72 122.72 261.076 122.843 261.341 123.089C261.606 123.335 261.739 123.648 261.739 124.029C261.739 124.416 261.604 124.732 261.332 124.979C261.066 125.225 260.713 125.348 260.274 125.348C259.833 125.348 259.477 125.225 259.205 124.979C258.941 124.732 258.808 124.416 258.808 124.029ZM271.101 128.872C270.746 128.825 270.432 128.802 270.16 128.802C269.171 128.802 268.522 129.127 268.216 129.777V136H265.601V126.49H268.071L268.143 127.624C268.668 126.751 269.394 126.314 270.323 126.314C270.613 126.314 270.884 126.353 271.137 126.429L271.101 128.872ZM279.623 136C279.502 135.771 279.415 135.487 279.36 135.147C278.727 135.833 277.903 136.176 276.891 136.176C275.931 136.176 275.134 135.906 274.501 135.367C273.874 134.828 273.56 134.148 273.56 133.328C273.56 132.32 273.943 131.547 274.709 131.008C275.481 130.469 276.594 130.196 278.049 130.19H279.251V129.646C279.251 129.206 279.134 128.854 278.899 128.591C278.669 128.327 278.305 128.195 277.804 128.195C277.363 128.195 277.017 128.298 276.763 128.503C276.516 128.708 276.392 128.989 276.392 129.347H273.778C273.778 128.796 273.953 128.286 274.303 127.817C274.653 127.349 275.147 126.982 275.786 126.719C276.425 126.449 277.144 126.314 277.939 126.314C279.146 126.314 280.102 126.61 280.807 127.202C281.52 127.788 281.875 128.614 281.875 129.681V133.803C281.881 134.705 282.011 135.388 282.264 135.851V136H279.623ZM277.46 134.233C277.846 134.233 278.202 134.151 278.527 133.987C278.854 133.817 279.095 133.592 279.251 133.311V131.676H278.274C276.966 131.676 276.269 132.115 276.184 132.994L276.175 133.144C276.175 133.46 276.29 133.721 276.519 133.926C276.748 134.131 277.062 134.233 277.46 134.233ZM292.701 136V123.203H296.755C297.913 123.203 298.948 123.458 299.858 123.968C300.775 124.472 301.489 125.192 302.002 126.13C302.515 127.062 302.772 128.122 302.772 129.312V129.9C302.772 131.09 302.518 132.147 302.011 133.073C301.511 133.999 300.802 134.717 299.886 135.227C298.968 135.736 297.934 135.994 296.782 136H292.701ZM295.416 125.339V133.882H296.727C297.79 133.882 298.601 133.545 299.162 132.871C299.723 132.197 300.009 131.233 300.021 129.979V129.303C300.021 128.002 299.743 127.018 299.189 126.35C298.634 125.676 297.823 125.339 296.755 125.339H295.416ZM309.519 136H306.896V126.49H309.519V136ZM306.741 124.029C306.741 123.648 306.871 123.335 307.131 123.089C307.396 122.843 307.755 122.72 308.207 122.72C308.654 122.72 309.009 122.843 309.275 123.089C309.54 123.335 309.673 123.648 309.673 124.029C309.673 124.416 309.537 124.732 309.266 124.979C309.001 125.225 308.648 125.348 308.207 125.348C307.767 125.348 307.412 125.225 307.14 124.979C306.874 124.732 306.741 124.416 306.741 124.029ZM313.155 131.175C313.155 129.716 313.511 128.541 314.222 127.65C314.94 126.76 315.905 126.314 317.117 126.314C318.191 126.314 319.026 126.672 319.623 127.387L319.732 126.49H322.102V135.684C322.102 136.516 321.907 137.239 321.515 137.854C321.128 138.47 320.583 138.938 319.877 139.261C319.172 139.583 318.345 139.744 317.398 139.744C316.68 139.744 315.98 139.604 315.299 139.322C314.617 139.047 314.102 138.689 313.752 138.25L314.91 136.703C315.561 137.412 316.351 137.767 317.281 137.767C317.973 137.767 318.514 137.585 318.9 137.222C319.286 136.864 319.478 136.354 319.478 135.692V135.183C318.875 135.845 318.082 136.176 317.099 136.176C315.923 136.176 314.971 135.73 314.241 134.84C313.516 133.943 313.155 132.757 313.155 131.28V131.175ZM315.769 131.359C315.769 132.221 315.947 132.897 316.303 133.39C316.659 133.876 317.148 134.119 317.768 134.119C318.565 134.119 319.135 133.829 319.478 133.249V129.25C319.129 128.67 318.565 128.38 317.787 128.38C317.159 128.38 316.665 128.629 316.303 129.127C315.947 129.625 315.769 130.369 315.769 131.359ZM328.733 136H326.109V126.49H328.733V136ZM325.955 124.029C325.955 123.648 326.085 123.335 326.344 123.089C326.609 122.843 326.968 122.72 327.42 122.72C327.867 122.72 328.223 122.843 328.489 123.089C328.753 123.335 328.886 123.648 328.886 124.029C328.886 124.416 328.75 124.732 328.479 124.979C328.214 125.225 327.861 125.348 327.42 125.348C326.981 125.348 326.625 125.225 326.353 124.979C326.088 124.732 325.955 124.416 325.955 124.029ZM335.878 124.152V126.49H337.552V128.354H335.878V133.1C335.878 133.451 335.948 133.703 336.087 133.855C336.225 134.008 336.49 134.084 336.883 134.084C337.172 134.084 337.428 134.063 337.652 134.022V135.947C337.139 136.1 336.611 136.176 336.068 136.176C334.235 136.176 333.3 135.276 333.263 133.478V128.354H331.834V126.49H333.263V124.152H335.878ZM346.534 136C346.414 135.771 346.326 135.487 346.272 135.147C345.639 135.833 344.815 136.176 343.802 136.176C342.843 136.176 342.047 135.906 341.414 135.367C340.786 134.828 340.473 134.148 340.473 133.328C340.473 132.32 340.856 131.547 341.622 131.008C342.394 130.469 343.507 130.196 344.96 130.19H346.164V129.646C346.164 129.206 346.046 128.854 345.811 128.591C345.581 128.327 345.217 128.195 344.716 128.195C344.276 128.195 343.929 128.298 343.676 128.503C343.429 128.708 343.305 128.989 343.305 129.347H340.689C340.689 128.796 340.864 128.286 341.214 127.817C341.564 127.349 342.06 126.982 342.699 126.719C343.338 126.449 344.056 126.314 344.851 126.314C346.058 126.314 347.014 126.61 347.72 127.202C348.432 127.788 348.788 128.614 348.788 129.681V133.803C348.794 134.705 348.924 135.388 349.177 135.851V136H346.534ZM344.373 134.233C344.759 134.233 345.114 134.151 345.44 133.987C345.765 133.817 346.007 133.592 346.164 133.311V131.676H345.187C343.877 131.676 343.181 132.115 343.096 132.994L343.088 133.144C343.088 133.46 343.202 133.721 343.432 133.926C343.66 134.131 343.974 134.233 344.373 134.233ZM355.409 136H352.785V122.5H355.409V136Z" fill="#939AAF"/>
<defs>
<filter id="filter0_i_546_642" x="39.1172" y="24" width="61.7646" height="64" filterUnits="userSpaceOnUse" color-interpolation-filters="sRGB">
<feFlood flood-opacity="0" result="BackgroundImageFix"/>
<feBlend mode="normal" in="SourceGraphic" in2="BackgroundImageFix" result="shape"/>
<feColorMatrix in="SourceAlpha" type="matrix" values="0 0 0 0 0 0 0 0 0 0 0 0 0 0 0 0 0 0 127 0" result="hardAlpha"/>
<feOffset dy="4"/>
<feGaussianBlur stdDeviation="2"/>
<feComposite in2="hardAlpha" operator="arithmetic" k2="-1" k3="1"/>
<feColorMatrix type="matrix" values="0 0 0 0 0 0 0 0 0 0 0 0 0 0 0 0 0 0 0.25 0"/>
<feBlend mode="normal" in2="shape" result="effect1_innerShadow_546_642"/>
</filter>
</defs>
</svg>