<svg width="113" height="64" viewBox="0 0 113 64" fill="none" xmlns="http://www.w3.org/2000/svg">
<g filter="url(#filter0_d_541_627)">
<path d="M28.6127 51.64H20.5527C19.4694 51.64 18.6894 51.4017 18.2127 50.925C17.7794 50.4483 17.5627 49.69 17.5627 48.65V38.38H7.6177C6.5777 38.38 5.81936 38.1633 5.3427 37.73C4.86603 37.2533 4.6277 36.4733 4.6277 35.39V27.98C4.6277 27.4167 4.6927 26.94 4.8227 26.55C4.99603 26.16 5.23436 25.835 5.5377 25.575L13.9227 18.49C14.1394 18.3167 14.421 18.1867 14.7677 18.1C15.1577 17.97 15.5694 17.905 16.0027 17.905H17.5627V14.72C17.5627 14.1567 17.6277 13.68 17.7577 13.29C17.8877 12.9 18.0827 12.5967 18.3427 12.38L18.4077 12.315L26.8577 5.23C27.0744 5.05666 27.356 4.92666 27.7027 4.84C28.0494 4.71 28.461 4.645 28.9377 4.645H36.9977C38.0377 4.645 38.796 4.88333 39.2727 5.36C39.7494 5.83666 39.9877 6.595 39.9877 7.635V17.905H49.9327C50.9727 17.905 51.731 18.1433 52.2077 18.62C52.6844 19.0533 52.9227 19.8117 52.9227 20.895V28.305C52.9227 28.8683 52.836 29.345 52.6627 29.735C52.5327 30.125 52.316 30.45 52.0127 30.71L43.6277 37.795C43.3677 37.9683 43.0644 38.12 42.7177 38.25C42.371 38.3367 41.981 38.38 41.5477 38.38H39.9877V41.565C39.9877 42.1283 39.901 42.605 39.7277 42.995C39.5977 43.385 39.381 43.71 39.0777 43.97L30.6927 51.055C30.4327 51.2283 30.1294 51.3583 29.7827 51.445C29.436 51.575 29.046 51.64 28.6127 51.64ZM39.3377 41.565V30.645H49.9327C50.756 30.645 51.341 30.4717 51.6877 30.125C52.0777 29.735 52.2727 29.1283 52.2727 28.305V20.895C52.2727 20.0717 52.0777 19.4867 51.6877 19.14C51.341 18.75 50.756 18.555 49.9327 18.555H39.3377V7.635C39.3377 6.81166 39.1427 6.22666 38.7527 5.88C38.406 5.49 37.821 5.295 36.9977 5.295H28.9377C28.1144 5.295 27.5077 5.49 27.1177 5.88C26.771 6.22666 26.5977 6.81166 26.5977 7.635V18.555H16.0027C15.1794 18.555 14.5727 18.75 14.1827 19.14C13.836 19.4867 13.6627 20.0717 13.6627 20.895V28.305C13.6627 29.1283 13.836 29.735 14.1827 30.125C14.5727 30.4717 15.1794 30.645 16.0027 30.645H26.5977V41.565C26.5977 42.3883 26.771 42.995 27.1177 43.385C27.5077 43.7317 28.1144 43.905 28.9377 43.905H36.9977C37.821 43.905 38.406 43.7317 38.7527 43.385C39.1427 42.995 39.3377 42.3883 39.3377 41.565ZM32.6427 38.055V24.925H19.5127V24.275H32.6427V11.145H33.2927V24.275H46.4227V24.925H33.2927V38.055H32.6427ZM78.3367 55.735H68.2617C67.2217 55.735 66.4633 55.4967 65.9867 55.02C65.51 54.5433 65.2717 53.785 65.2717 52.745V10.625C65.2717 10.0617 65.3367 9.585 65.4667 9.195C65.64 8.805 65.8783 8.48 66.1817 8.22L74.5667 1.135C74.7833 0.961665 75.065 0.831664 75.4117 0.744996C75.8017 0.614998 76.2133 0.549999 76.6467 0.549999H105.637C106.677 0.549999 107.435 0.788332 107.912 1.265C108.388 1.74167 108.627 2.5 108.627 3.54V11.275C108.627 11.8383 108.54 12.315 108.367 12.705C108.237 13.095 108.02 13.42 107.717 13.68L100.437 19.725C101.433 19.725 102.17 19.9633 102.647 20.44C103.123 20.9167 103.362 21.675 103.362 22.715V30.515C103.362 31.0783 103.275 31.555 103.102 31.945C102.972 32.335 102.755 32.66 102.452 32.92L94.0017 39.94C93.8283 40.1133 93.5467 40.265 93.1567 40.395C92.81 40.525 92.42 40.59 91.9867 40.59H89.7117V45.66C89.7117 46.2233 89.625 46.7 89.4517 47.09C89.3217 47.48 89.105 47.805 88.8017 48.065L80.3517 55.085C80.1783 55.2583 79.8967 55.41 79.5067 55.54C79.16 55.67 78.77 55.735 78.3367 55.735ZM86.7217 48C87.545 48 88.13 47.8267 88.4767 47.48C88.8667 47.09 89.0617 46.4833 89.0617 45.66V32.855H100.372C101.195 32.855 101.78 32.6817 102.127 32.335C102.517 31.945 102.712 31.3383 102.712 30.515V22.715C102.712 21.8917 102.517 21.3067 102.127 20.96C101.78 20.57 101.195 20.375 100.372 20.375H89.0617V13.615H105.637C106.46 13.615 107.045 13.4417 107.392 13.095C107.782 12.705 107.977 12.0983 107.977 11.275V3.54C107.977 2.71667 107.782 2.13167 107.392 1.785C107.045 1.395 106.46 1.2 105.637 1.2H76.6467C75.8233 1.2 75.2167 1.395 74.8267 1.785C74.48 2.13167 74.3067 2.71667 74.3067 3.54V45.66C74.3067 46.4833 74.48 47.09 74.8267 47.48C75.2167 47.8267 75.8233 48 76.6467 48H86.7217ZM81.3917 42.15V7.05H102.127V7.7H82.0417V26.29H96.8617V26.94H82.0417V42.15H81.3917Z" fill="#BDFF00"/>
<path d="M18.2127 50.925L15.2529 53.6157L15.317 53.6861L15.3843 53.7534L18.2127 50.925ZM17.5627 38.38H21.5627V34.38H17.5627V38.38ZM5.3427 37.73L2.51427 40.5584L2.58157 40.6257L2.652 40.6898L5.3427 37.73ZM4.8227 26.55L1.16745 24.9254L1.08902 25.1019L1.02796 25.2851L4.8227 26.55ZM5.5377 25.575L2.95605 22.5197L2.94526 22.5288L2.93453 22.538L5.5377 25.575ZM13.9227 18.49L11.4239 15.3665L11.382 15.4L11.3411 15.4347L13.9227 18.49ZM14.7677 18.1L15.7378 21.9806L15.8869 21.9433L16.0326 21.8947L14.7677 18.1ZM17.5627 17.905V21.905H21.5627V17.905H17.5627ZM18.3427 12.38L20.9034 15.4529L21.0428 15.3367L21.1711 15.2085L18.3427 12.38ZM18.4077 12.315L15.8377 9.24986L15.7033 9.36253L15.5793 9.48653L18.4077 12.315ZM26.8577 5.23L24.3589 2.10653L24.323 2.13528L24.2877 2.16486L26.8577 5.23ZM27.7027 4.84L28.6728 8.72057L28.8939 8.66531L29.1072 8.58531L27.7027 4.84ZM39.9877 17.905H35.9877V21.905H39.9877V17.905ZM52.2077 18.62L49.3793 21.4484L49.4466 21.5157L49.517 21.5798L52.2077 18.62ZM52.6627 29.735L49.0075 28.1104L48.929 28.2869L48.868 28.4701L52.6627 29.735ZM52.0127 30.71L54.5943 33.7653L54.6051 33.7562L54.6159 33.747L52.0127 30.71ZM43.6277 37.795L45.8465 41.1232L46.0357 40.9971L46.2093 40.8503L43.6277 37.795ZM42.7177 38.25L43.6878 42.1306L43.9089 42.0753L44.1222 41.9953L42.7177 38.25ZM39.9877 38.38V34.38H35.9877V38.38H39.9877ZM39.7277 42.995L36.0725 41.3704L35.994 41.5469L35.933 41.7301L39.7277 42.995ZM39.0777 43.97L41.6593 47.0253L41.6701 47.0162L41.6809 47.007L39.0777 43.97ZM30.6927 51.055L32.9115 54.3832L33.1007 54.2571L33.2743 54.1103L30.6927 51.055ZM29.7827 51.445L28.8126 47.5644L28.5915 47.6197L28.3782 47.6997L29.7827 51.445ZM39.3377 30.645V26.645H35.3377V30.645H39.3377ZM51.6877 30.125L54.5161 32.9534L54.5161 32.9534L51.6877 30.125ZM51.6877 19.14L48.6981 21.7975L48.8544 21.9733L49.0302 22.1296L51.6877 19.14ZM39.3377 18.555H35.3377V22.555H39.3377V18.555ZM38.7527 5.88L35.7631 8.53746L35.9194 8.71332L36.0953 8.86964L38.7527 5.88ZM27.1177 5.88L29.9461 8.70844L29.9461 8.70843L27.1177 5.88ZM26.5977 18.555V22.555H30.5977V18.555H26.5977ZM14.1827 19.14L11.3543 16.3116L11.3543 16.3116L14.1827 19.14ZM14.1827 30.125L11.1931 32.7825L11.3494 32.9583L11.5252 33.1146L14.1827 30.125ZM26.5977 30.645H30.5977V26.645H26.5977V30.645ZM27.1177 43.385L24.1281 46.0425L24.2844 46.2183L24.4602 46.3746L27.1177 43.385ZM38.7527 43.385L41.5811 46.2134L41.5811 46.2134L38.7527 43.385ZM32.6427 38.055H28.6427V42.055H32.6427V38.055ZM32.6427 24.925H36.6427V20.925H32.6427V24.925ZM19.5127 24.925H15.5127V28.925H19.5127V24.925ZM19.5127 24.275V20.275H15.5127V24.275H19.5127ZM32.6427 24.275V28.275H36.6427V24.275H32.6427ZM32.6427 11.145V7.145H28.6427V11.145H32.6427ZM33.2927 11.145H37.2927V7.145H33.2927V11.145ZM33.2927 24.275H29.2927V28.275H33.2927V24.275ZM46.4227 24.275H50.4227V20.275H46.4227V24.275ZM46.4227 24.925V28.925H50.4227V24.925H46.4227ZM33.2927 24.925V20.925H29.2927V24.925H33.2927ZM33.2927 38.055V42.055H37.2927V38.055H33.2927ZM28.6127 47.64H20.5527V55.64H28.6127V47.64ZM20.5527 47.64C20.2856 47.64 20.2343 47.6084 20.3241 47.6358C20.4301 47.6683 20.7286 47.784 21.0411 48.0966L15.3843 53.7534C16.9574 55.3266 19.0271 55.64 20.5527 55.64V47.64ZM21.1725 48.2343C21.4522 48.5421 21.5478 48.8177 21.5713 48.8999C21.5916 48.9709 21.5627 48.9091 21.5627 48.65H13.5627C13.5627 50.107 13.843 52.0648 15.2529 53.6157L21.1725 48.2343ZM21.5627 48.65V38.38H13.5627V48.65H21.5627ZM17.5627 34.38H7.6177V42.38H17.5627V34.38ZM7.6177 34.38C7.3586 34.38 7.29683 34.3511 7.36783 34.3714C7.44995 34.3949 7.72563 34.4905 8.03339 34.7702L2.652 40.6898C4.2029 42.0997 6.16069 42.38 7.6177 42.38V34.38ZM8.17112 34.9016C8.48367 35.2141 8.59944 35.5126 8.63185 35.6186C8.65928 35.7084 8.6277 35.6571 8.6277 35.39H0.627696C0.627696 36.9156 0.941088 38.9852 2.51427 40.5584L8.17112 34.9016ZM8.6277 35.39V27.98H0.627696V35.39H8.6277ZM8.6277 27.98C8.6277 27.8494 8.6354 27.7725 8.63977 27.7405C8.6442 27.7079 8.64292 27.7384 8.61743 27.8149L1.02796 25.2851C0.722085 26.2027 0.627696 27.1344 0.627696 27.98H8.6277ZM8.47794 28.1746C8.42669 28.2899 8.31922 28.4591 8.14086 28.612L2.93453 22.538C2.14951 23.2109 1.56537 24.0301 1.16745 24.9254L8.47794 28.1746ZM8.11934 28.6303L16.5043 21.5453L11.3411 15.4347L2.95605 22.5197L8.11934 28.6303ZM16.4215 21.6135C16.0793 21.8872 15.7947 21.9664 15.7378 21.9806L13.7976 14.2194C13.0473 14.407 12.1994 14.7461 11.4239 15.3665L16.4215 21.6135ZM16.0326 21.8947C16.0157 21.9004 16.0016 21.9034 15.9928 21.9048C15.9843 21.9061 15.9867 21.905 16.0027 21.905V13.905C15.1628 13.905 14.3223 14.0321 13.5028 14.3053L16.0326 21.8947ZM16.0027 21.905H17.5627V13.905H16.0027V21.905ZM21.5627 17.905V14.72H13.5627V17.905H21.5627ZM21.5627 14.72C21.5627 14.5894 21.5704 14.5125 21.5748 14.4805C21.5792 14.4479 21.5779 14.4784 21.5524 14.5549L13.963 12.0251C13.6571 12.9427 13.5627 13.8744 13.5627 14.72H21.5627ZM21.5524 14.5549C21.4979 14.7186 21.3266 15.1002 20.9034 15.4529L15.782 9.30711C14.8388 10.0931 14.2775 11.0814 13.963 12.0251L21.5524 14.5549ZM21.1711 15.2085L21.2361 15.1435L15.5793 9.48653L15.5143 9.55153L21.1711 15.2085ZM20.9777 15.3801L29.4277 8.29514L24.2877 2.16486L15.8377 9.24986L20.9777 15.3801ZM29.3565 8.35347C29.0143 8.6272 28.7297 8.70635 28.6728 8.72057L26.7326 0.959424C25.9823 1.14698 25.1344 1.48612 24.3589 2.10653L29.3565 8.35347ZM29.1072 8.58531C28.9987 8.62599 28.9233 8.64038 28.8953 8.6448C28.8679 8.64912 28.8792 8.645 28.9377 8.645V0.644996C28.1126 0.644996 27.2023 0.755631 26.2982 1.09469L29.1072 8.58531ZM28.9377 8.645H36.9977V0.644996H28.9377V8.645ZM36.9977 8.645C37.2288 8.645 37.2545 8.67346 37.1471 8.63972C37.0216 8.60026 36.7366 8.48072 36.4443 8.18843L42.1011 2.53157C40.5531 0.983542 38.536 0.644996 36.9977 0.644996V8.645ZM36.4443 8.18843C36.152 7.89612 36.0324 7.6111 35.993 7.48555C35.9592 7.3782 35.9877 7.40384 35.9877 7.635H43.9877C43.9877 6.09672 43.6492 4.0796 42.1011 2.53157L36.4443 8.18843ZM35.9877 7.635V17.905H43.9877V7.635H35.9877ZM39.9877 21.905H49.9327V13.905H39.9877V21.905ZM49.9327 21.905C50.1638 21.905 50.1895 21.9335 50.0821 21.8997C49.9566 21.8603 49.6716 21.7407 49.3793 21.4484L55.0361 15.7916C53.4881 14.2435 51.471 13.905 49.9327 13.905V21.905ZM49.517 21.5798C49.1212 21.2199 48.9719 20.8529 48.928 20.7131C48.89 20.5922 48.9227 20.6233 48.9227 20.895H56.9227C56.9227 19.4189 56.6301 17.2345 54.8984 15.6602L49.517 21.5798ZM48.9227 20.895V28.305H56.9227V20.895H48.9227ZM48.9227 28.305C48.9227 28.3844 48.9164 28.4016 48.9222 28.3695C48.9283 28.3361 48.9489 28.2423 49.0075 28.1104L56.3179 31.3596C56.7789 30.3224 56.9227 29.2575 56.9227 28.305H48.9227ZM48.868 28.4701C48.9095 28.3455 48.9755 28.2009 49.0745 28.0525C49.1739 27.9034 49.2896 27.7758 49.4095 27.673L54.6159 33.747C55.4862 33.0011 56.1052 32.0568 56.4574 30.9999L48.868 28.4701ZM49.4311 27.6547L41.0461 34.7397L46.2093 40.8503L54.5943 33.7653L49.4311 27.6547ZM41.4089 34.4668C41.4451 34.4426 41.4244 34.463 41.3132 34.5047L44.1222 41.9953C44.7043 41.777 45.2902 41.494 45.8465 41.1232L41.4089 34.4668ZM41.7476 34.3694C41.7769 34.3621 41.7206 34.38 41.5477 34.38V42.38C42.2414 42.38 42.9652 42.3112 43.6878 42.1306L41.7476 34.3694ZM41.5477 34.38H39.9877V42.38H41.5477V34.38ZM35.9877 38.38V41.565H43.9877V38.38H35.9877ZM35.9877 41.565C35.9877 41.6444 35.9814 41.6616 35.9872 41.6295C35.9933 41.5961 36.0139 41.5023 36.0725 41.3704L43.3829 44.6196C43.8439 43.5824 43.9877 42.5175 43.9877 41.565H35.9877ZM35.933 41.7301C35.9745 41.6055 36.0405 41.4609 36.1395 41.3125C36.2389 41.1634 36.3546 41.0358 36.4745 40.933L41.6809 47.007C42.5512 46.2611 43.1701 45.3168 43.5224 44.2599L35.933 41.7301ZM36.4961 40.9147L28.1111 47.9997L33.2743 54.1103L41.6593 47.0253L36.4961 40.9147ZM28.4739 47.7268C28.6459 47.6122 28.7774 47.5732 28.8126 47.5644L30.7528 55.3256C31.4814 55.1434 32.2195 54.8445 32.9115 54.3832L28.4739 47.7268ZM28.3782 47.6997C28.5501 47.6352 28.6466 47.64 28.6127 47.64V55.64C29.4455 55.64 30.322 55.5148 31.1872 55.1903L28.3782 47.6997ZM43.3377 41.565V30.645H35.3377V41.565H43.3377ZM39.3377 34.645H49.9327V26.645H39.3377V34.645ZM49.9327 34.645C51.1377 34.645 53.0468 34.4227 54.5161 32.9534L48.8593 27.2966C49.259 26.8968 49.6598 26.7369 49.8526 26.6798C50.0321 26.6266 50.0845 26.645 49.9327 26.645V34.645ZM54.5161 32.9534C55.9565 31.513 56.2727 29.6716 56.2727 28.305H48.2727C48.2727 28.4158 48.2578 28.3418 48.3183 28.1535C48.385 27.9461 48.5397 27.6161 48.8593 27.2966L54.5161 32.9534ZM56.2727 28.305V20.895H48.2727V28.305H56.2727ZM56.2727 20.895C56.2727 19.5801 55.9778 17.6016 54.3452 16.1504L49.0302 22.1296C48.6136 21.7593 48.4153 21.3543 48.3317 21.1037C48.2563 20.8775 48.2727 20.7784 48.2727 20.895H56.2727ZM54.6773 16.4825C53.2261 14.8499 51.2475 14.555 49.9327 14.555V22.555C50.0493 22.555 49.9502 22.5714 49.724 22.496C49.4734 22.4124 49.0684 22.2141 48.6981 21.7975L54.6773 16.4825ZM49.9327 14.555H39.3377V22.555H49.9327V14.555ZM43.3377 18.555V7.635H35.3377V18.555H43.3377ZM43.3377 7.635C43.3377 6.32015 43.0428 4.34163 41.4101 2.89035L36.0953 8.86964C35.6786 8.49932 35.4803 8.09428 35.3967 7.84366C35.3213 7.6175 35.3377 7.51841 35.3377 7.635H43.3377ZM41.7423 3.22254C40.2911 1.58986 38.3126 1.295 36.9977 1.295V9.295C37.1143 9.295 37.0152 9.31137 36.789 9.23598C36.5384 9.15244 36.1334 8.95407 35.7631 8.53746L41.7423 3.22254ZM36.9977 1.295H28.9377V9.295H36.9977V1.295ZM28.9377 1.295C27.5711 1.295 25.7297 1.61117 24.2893 3.05157L29.9461 8.70843C29.6266 9.02797 29.2966 9.1827 29.0892 9.24936C28.9009 9.3099 28.8269 9.295 28.9377 9.295V1.295ZM24.2893 3.05156C22.82 4.52084 22.5977 6.43001 22.5977 7.635H30.5977C30.5977 7.48321 30.6161 7.53557 30.5629 7.71511C30.5058 7.90787 30.3458 8.3087 29.9461 8.70844L24.2893 3.05156ZM22.5977 7.635V18.555H30.5977V7.635H22.5977ZM26.5977 14.555H16.0027V22.555H26.5977V14.555ZM16.0027 14.555C14.6361 14.555 12.7947 14.8712 11.3543 16.3116L17.0111 21.9684C16.6916 22.288 16.3616 22.4427 16.1542 22.5094C15.9659 22.5699 15.8919 22.555 16.0027 22.555V14.555ZM11.3543 16.3116C9.88499 17.7808 9.6627 19.69 9.6627 20.895H17.6627C17.6627 20.7432 17.6811 20.7956 17.6279 20.9751C17.5708 21.1679 17.4109 21.5687 17.0111 21.9684L11.3543 16.3116ZM9.6627 20.895V28.305H17.6627V20.895H9.6627ZM9.6627 28.305C9.6627 29.5692 9.90965 31.3386 11.1931 32.7825L17.1723 27.4675C17.4725 27.8053 17.5945 28.1236 17.6388 28.2786C17.6798 28.4222 17.6627 28.4514 17.6627 28.305H9.6627ZM11.5252 33.1146C12.9691 34.398 14.7384 34.645 16.0027 34.645V26.645C15.8563 26.645 15.8855 26.6279 16.0291 26.6689C16.1841 26.7132 16.5024 26.8352 16.8401 27.1354L11.5252 33.1146ZM16.0027 34.645H26.5977V26.645H16.0027V34.645ZM22.5977 30.645V41.565H30.5977V30.645H22.5977ZM22.5977 41.565C22.5977 42.8293 22.8447 44.5986 24.1281 46.0425L30.1073 40.7275C30.4075 41.0653 30.5295 41.3836 30.5738 41.5386C30.6148 41.6822 30.5977 41.7114 30.5977 41.565H22.5977ZM24.4602 46.3746C25.9041 47.658 27.6734 47.905 28.9377 47.905V39.905C28.7913 39.905 28.8205 39.8879 28.9641 39.9289C29.1191 39.9732 29.4374 40.0952 29.7752 40.3954L24.4602 46.3746ZM28.9377 47.905H36.9977V39.905H28.9377V47.905ZM36.9977 47.905C38.2027 47.905 40.1118 47.6827 41.5811 46.2134L35.9243 40.5566C36.324 40.1568 36.7248 39.9969 36.9176 39.9398C37.0971 39.8866 37.1495 39.905 36.9977 39.905V47.905ZM41.5811 46.2134C43.0215 44.773 43.3377 42.9316 43.3377 41.565H35.3377C35.3377 41.6758 35.3228 41.6018 35.3833 41.4135C35.45 41.2061 35.6047 40.8761 35.9243 40.5566L41.5811 46.2134ZM36.6427 38.055V24.925H28.6427V38.055H36.6427ZM32.6427 20.925H19.5127V28.925H32.6427V20.925ZM23.5127 24.925V24.275H15.5127V24.925H23.5127ZM19.5127 28.275H32.6427V20.275H19.5127V28.275ZM36.6427 24.275V11.145H28.6427V24.275H36.6427ZM32.6427 15.145H33.2927V7.145H32.6427V15.145ZM29.2927 11.145V24.275H37.2927V11.145H29.2927ZM33.2927 28.275H46.4227V20.275H33.2927V28.275ZM42.4227 24.275V24.925H50.4227V24.275H42.4227ZM46.4227 20.925H33.2927V28.925H46.4227V20.925ZM29.2927 24.925V38.055H37.2927V24.925H29.2927ZM33.2927 34.055H32.6427V42.055H33.2927V34.055ZM65.9867 55.02L63.1583 57.8484L65.9867 55.02ZM65.4667 9.195L61.8114 7.57045L61.733 7.7469L61.6719 7.93009L65.4667 9.195ZM66.1817 8.22L63.6 5.16466L63.5892 5.17378L63.5785 5.18298L66.1817 8.22ZM74.5667 1.135L72.0679 -1.98847L72.026 -1.95496L71.985 -1.92034L74.5667 1.135ZM75.4117 0.744996L76.3818 4.62556L76.5309 4.58831L76.6766 4.53973L75.4117 0.744996ZM107.912 1.265L110.74 -1.56342L110.74 -1.56343L107.912 1.265ZM108.367 12.705L104.711 11.0804L104.633 11.2569L104.572 11.4401L108.367 12.705ZM107.717 13.68L110.272 16.7574L110.296 16.7374L110.32 16.717L107.717 13.68ZM100.437 19.725L97.8814 16.6476L89.358 23.725H100.437V19.725ZM102.647 20.44L99.8182 23.2684L99.8183 23.2684L102.647 20.44ZM103.102 31.945L99.4464 30.3204L99.368 30.4969L99.307 30.6801L103.102 31.945ZM102.452 32.92L105.008 35.9968L105.031 35.9771L105.055 35.957L102.452 32.92ZM94.0017 39.94L91.4456 36.8632L91.3037 36.9811L91.1733 37.1116L94.0017 39.94ZM93.1567 40.395L91.8918 36.6003L91.8215 36.6237L91.7522 36.6497L93.1567 40.395ZM89.7117 40.59V36.59H85.7117V40.59H89.7117ZM89.4517 47.09L85.7964 45.4654L85.718 45.6419L85.6569 45.8251L89.4517 47.09ZM88.8017 48.065L91.3578 51.1418L91.3815 51.1221L91.4048 51.102L88.8017 48.065ZM80.3517 55.085L77.7956 52.0082L77.6537 52.1261L77.5233 52.2566L80.3517 55.085ZM79.5067 55.54L78.2418 51.7453L78.1715 51.7687L78.1022 51.7947L79.5067 55.54ZM88.4767 47.48L85.6483 44.6516L85.6483 44.6516L88.4767 47.48ZM89.0617 32.855V28.855H85.0617V32.855H89.0617ZM102.127 32.335L104.955 35.1634L104.955 35.1634L102.127 32.335ZM102.127 20.96L99.137 23.6175L99.2934 23.7933L99.4692 23.9496L102.127 20.96ZM89.0617 20.375H85.0617V24.375H89.0617V20.375ZM89.0617 13.615V9.615H85.0617V13.615H89.0617ZM107.392 1.785L104.402 4.44245L104.558 4.61831L104.734 4.77463L107.392 1.785ZM74.8267 1.785L71.9983 -1.04343L71.9982 -1.04342L74.8267 1.785ZM74.8267 47.48L71.837 50.1375L71.9934 50.3133L72.1692 50.4696L74.8267 47.48ZM81.3917 42.15H77.3917V46.15H81.3917V42.15ZM81.3917 7.05V3.05H77.3917V7.05H81.3917ZM102.127 7.05H106.127V3.05H102.127V7.05ZM102.127 7.7V11.7H106.127V7.7H102.127ZM82.0417 7.7V3.7H78.0417V7.7H82.0417ZM82.0417 26.29H78.0417V30.29H82.0417V26.29ZM96.8617 26.29H100.862V22.29H96.8617V26.29ZM96.8617 26.94V30.94H100.862V26.94H96.8617ZM82.0417 26.94V22.94H78.0417V26.94H82.0417ZM82.0417 42.15V46.15H86.0417V42.15H82.0417ZM78.3367 51.735H68.2617V59.735H78.3367V51.735ZM68.2617 51.735C68.0305 51.735 68.0049 51.7065 68.1122 51.7403C68.2378 51.7797 68.5228 51.8993 68.8151 52.1916L63.1583 57.8484C64.7063 59.3965 66.7234 59.735 68.2617 59.735V51.735ZM68.8151 52.1916C69.1074 52.4839 69.2269 52.7689 69.2664 52.8944C69.3001 53.0018 69.2717 52.9762 69.2717 52.745H61.2717C61.2717 54.2833 61.6102 56.3004 63.1583 57.8484L68.8151 52.1916ZM69.2717 52.745V10.625H61.2717V52.745H69.2717ZM69.2717 10.625C69.2717 10.4944 69.2794 10.4175 69.2838 10.3855C69.2882 10.3529 69.2869 10.3834 69.2614 10.4599L61.6719 7.93009C61.3661 8.84772 61.2717 9.77937 61.2717 10.625H69.2717ZM69.1219 10.8196C69.0707 10.9349 68.9632 11.1041 68.7849 11.257L63.5785 5.18298C62.7935 5.85585 62.2094 6.67513 61.8114 7.57045L69.1219 10.8196ZM68.7633 11.2753L77.1483 4.19034L71.985 -1.92034L63.6 5.16466L68.7633 11.2753ZM77.0655 4.25847C76.7233 4.5322 76.4387 4.61134 76.3818 4.62556L74.4415 -3.13557C73.6913 -2.94801 72.8434 -2.60887 72.0679 -1.98847L77.0655 4.25847ZM76.6766 4.53973C76.6597 4.54536 76.6456 4.54841 76.6368 4.5498C76.6283 4.55115 76.6307 4.55 76.6467 4.55V-3.45C75.8068 -3.45 74.9663 -3.3229 74.1468 -3.04974L76.6766 4.53973ZM76.6467 4.55H105.637V-3.45H76.6467V4.55ZM105.637 4.55C105.868 4.55 105.893 4.57846 105.786 4.54472C105.661 4.50527 105.376 4.38573 105.083 4.09342L110.74 -1.56343C109.192 -3.11146 107.175 -3.45 105.637 -3.45V4.55ZM105.083 4.09342C104.791 3.80112 104.671 3.51609 104.632 3.39055C104.598 3.2832 104.627 3.30885 104.627 3.54H112.627C112.627 2.00172 112.288 -0.0153923 110.74 -1.56342L105.083 4.09342ZM104.627 3.54V11.275H112.627V3.54H104.627ZM104.627 11.275C104.627 11.3544 104.62 11.3716 104.626 11.3395C104.632 11.3061 104.653 11.2123 104.711 11.0804L112.022 14.3296C112.483 13.2924 112.627 12.2275 112.627 11.275H104.627ZM104.572 11.4401C104.613 11.3155 104.68 11.1709 104.778 11.0225C104.878 10.8734 104.994 10.7458 105.114 10.643L110.32 16.717C111.19 15.9711 111.809 15.0267 112.161 13.9699L104.572 11.4401ZM105.161 10.6026L97.8814 16.6476L102.992 22.8024L110.272 16.7574L105.161 10.6026ZM100.437 23.725C100.631 23.725 100.63 23.7499 100.505 23.7095C100.361 23.6629 100.09 23.54 99.8182 23.2684L105.475 17.6116C103.954 16.0907 101.99 15.725 100.437 15.725V23.725ZM99.8183 23.2684C99.526 22.9761 99.4064 22.6911 99.367 22.5656C99.3332 22.4582 99.3617 22.4838 99.3617 22.715H107.362C107.362 21.1767 107.023 19.1596 105.475 17.6116L99.8183 23.2684ZM99.3617 22.715V30.515H107.362V22.715H99.3617ZM99.3617 30.515C99.3617 30.5944 99.3554 30.6116 99.3612 30.5795C99.3673 30.5461 99.3879 30.4523 99.4464 30.3204L106.757 33.5696C107.218 32.5324 107.362 31.4675 107.362 30.515H99.3617ZM99.307 30.6801C99.3485 30.5555 99.4145 30.4109 99.5135 30.2625C99.6129 30.1134 99.7286 29.9858 99.8485 29.883L105.055 35.957C105.925 35.2111 106.544 34.2668 106.896 33.2099L99.307 30.6801ZM99.8956 29.8432L91.4456 36.8632L96.5578 43.0168L105.008 35.9968L99.8956 29.8432ZM91.1733 37.1116C91.431 36.8538 91.6604 36.7177 91.764 36.6619C91.873 36.6032 91.9269 36.5886 91.8918 36.6003L94.4216 44.1897C95.0517 43.9797 96.0159 43.5826 96.8301 42.7684L91.1733 37.1116ZM91.7522 36.6497C91.924 36.5852 92.0206 36.59 91.9867 36.59V44.59C92.8195 44.59 93.696 44.4648 94.5612 44.1403L91.7522 36.6497ZM91.9867 36.59H89.7117V44.59H91.9867V36.59ZM85.7117 40.59V45.66H93.7117V40.59H85.7117ZM85.7117 45.66C85.7117 45.7394 85.7054 45.7566 85.7112 45.7245C85.7173 45.6911 85.7379 45.5973 85.7964 45.4654L93.1069 48.7146C93.5679 47.6774 93.7117 46.6125 93.7117 45.66H85.7117ZM85.6569 45.8251C85.6985 45.7005 85.7645 45.5559 85.8635 45.4074C85.9629 45.2584 86.0786 45.1308 86.1985 45.028L91.4048 51.102C92.2751 50.3561 92.8941 49.4118 93.2464 48.3549L85.6569 45.8251ZM86.2456 44.9882L77.7956 52.0082L82.9078 58.1618L91.3578 51.1418L86.2456 44.9882ZM77.5233 52.2566C77.781 51.9988 78.0104 51.8627 78.114 51.8069C78.223 51.7482 78.2769 51.7336 78.2418 51.7453L80.7716 59.3347C81.4017 59.1247 82.3659 58.7276 83.1801 57.9134L77.5233 52.2566ZM78.1022 51.7947C78.274 51.7302 78.3706 51.735 78.3367 51.735V59.735C79.1695 59.735 80.046 59.6098 80.9112 59.2853L78.1022 51.7947ZM86.7217 52C87.9267 52 89.8358 51.7777 91.3051 50.3084L85.6483 44.6516C86.048 44.2518 86.4488 44.0919 86.6416 44.0348C86.8211 43.9816 86.8735 44 86.7217 44V52ZM91.3051 50.3084C92.7455 48.868 93.0617 47.0266 93.0617 45.66H85.0617C85.0617 45.7708 85.0468 45.6968 85.1073 45.5085C85.174 45.3011 85.3287 44.9711 85.6483 44.6516L91.3051 50.3084ZM93.0617 45.66V32.855H85.0617V45.66H93.0617ZM89.0617 36.855H100.372V28.855H89.0617V36.855ZM100.372 36.855C101.577 36.855 103.486 36.6327 104.955 35.1634L99.2983 29.5066C99.698 29.1068 100.099 28.9469 100.292 28.8898C100.471 28.8366 100.523 28.855 100.372 28.855V36.855ZM104.955 35.1634C106.396 33.723 106.712 31.8816 106.712 30.515H98.7117C98.7117 30.6258 98.6968 30.5518 98.7573 30.3635C98.824 30.1561 98.9787 29.8261 99.2983 29.5066L104.955 35.1634ZM106.712 30.515V22.715H98.7117V30.515H106.712ZM106.712 22.715C106.712 21.4001 106.417 19.4216 104.784 17.9704L99.4692 23.9496C99.0526 23.5793 98.8542 23.1743 98.7707 22.9237C98.6953 22.6975 98.7117 22.5984 98.7117 22.715H106.712ZM105.116 18.3025C103.665 16.6699 101.687 16.375 100.372 16.375V24.375C100.488 24.375 100.389 24.3914 100.163 24.316C99.9124 24.2324 99.5074 24.0341 99.137 23.6175L105.116 18.3025ZM100.372 16.375H89.0617V24.375H100.372V16.375ZM93.0617 20.375V13.615H85.0617V20.375H93.0617ZM89.0617 17.615H105.637V9.615H89.0617V17.615ZM105.637 17.615C106.842 17.615 108.751 17.3927 110.22 15.9234L104.563 10.2666C104.963 9.86684 105.364 9.70692 105.557 9.6498C105.736 9.59661 105.788 9.615 105.637 9.615V17.615ZM110.22 15.9234C111.661 14.483 111.977 12.6416 111.977 11.275H103.977C103.977 11.3858 103.962 11.3118 104.022 11.1235C104.089 10.9161 104.244 10.5861 104.563 10.2666L110.22 15.9234ZM111.977 11.275V3.54H103.977V11.275H111.977ZM111.977 3.54C111.977 2.22515 111.682 0.246635 110.049 -1.20464L104.734 4.77463C104.318 4.40431 104.119 3.99928 104.036 3.74866C103.96 3.5225 103.977 3.42341 103.977 3.54H111.977ZM110.381 -0.872448C108.93 -2.50514 106.952 -2.8 105.637 -2.8V5.2C105.753 5.2 105.654 5.21637 105.428 5.14098C105.177 5.05744 104.772 4.85907 104.402 4.44245L110.381 -0.872448ZM105.637 -2.8H76.6467V5.2H105.637V-2.8ZM76.6467 -2.8C75.2801 -2.8 73.4387 -2.48383 71.9983 -1.04343L77.6551 4.61343C77.3356 4.93297 77.0056 5.0877 76.7982 5.15436C76.6099 5.2149 76.5358 5.2 76.6467 5.2V-2.8ZM71.9982 -1.04342C70.529 0.425853 70.3067 2.33502 70.3067 3.54H78.3067C78.3067 3.38821 78.3251 3.44057 78.2719 3.6201C78.2148 3.81286 78.0548 4.21369 77.6551 4.61342L71.9982 -1.04342ZM70.3067 3.54V45.66H78.3067V3.54H70.3067ZM70.3067 45.66C70.3067 46.9242 70.5536 48.6936 71.837 50.1375L77.8163 44.8225C78.1165 45.1603 78.2385 45.4786 78.2828 45.6336C78.3238 45.7772 78.3067 45.8064 78.3067 45.66H70.3067ZM72.1692 50.4696C73.6131 51.753 75.3824 52 76.6467 52V44C76.5003 44 76.5295 43.9829 76.6731 44.0239C76.8281 44.0682 77.1464 44.1902 77.4841 44.4904L72.1692 50.4696ZM76.6467 52H86.7217V44H76.6467V52ZM85.3917 42.15V7.05H77.3917V42.15H85.3917ZM81.3917 11.05H102.127V3.05H81.3917V11.05ZM98.1267 7.05V7.7H106.127V7.05H98.1267ZM102.127 3.7H82.0417V11.7H102.127V3.7ZM78.0417 7.7V26.29H86.0417V7.7H78.0417ZM82.0417 30.29H96.8617V22.29H82.0417V30.29ZM92.8617 26.29V26.94H100.862V26.29H92.8617ZM96.8617 22.94H82.0417V30.94H96.8617V22.94ZM78.0417 26.94V42.15H86.0417V26.94H78.0417ZM82.0417 38.15H81.3917V46.15H82.0417V38.15Z" fill="#191970"/>
</g>
<defs>
<filter id="filter0_d_541_627" x="0.62793" y="0.549988" width="111.999" height="63.185" filterUnits="userSpaceOnUse" color-interpolation-filters="sRGB">
<feFlood flood-opacity="0" result="BackgroundImageFix"/>
<feColorMatrix in="SourceAlpha" type="matrix" values="0 0 0 0 0 0 0 0 0 0 0 0 0 0 0 0 0 0 127 0" result="hardAlpha"/>
<feOffset dy="4"/>
<feGaussianBlur stdDeviation="2"/>
<feComposite in2="hardAlpha" operator="out"/>
<feColorMatrix type="matrix" values="0 0 0 0 0 0 0 0 0 0 0 0 0 0 0 0 0 0 0.25 0"/>
<feBlend mode="normal" in2="BackgroundImageFix" result="effect1_dropShadow_541_627"/>
<feBlend mode="normal" in="SourceGraphic" in2="effect1_dropShadow_541_627" result="shape"/>
</filter>
</defs>
</svg>
