<svg width="113" height="116" viewBox="0 0 113 116" fill="none" xmlns="http://www.w3.org/2000/svg">
<ellipse cx="56.5" cy="58" rx="56.5" ry="56" fill="white"/>
<path d="M56.5 1.8125C25.2883 1.8125 0 26.9609 0 58C0 89.0391 25.2883 114.188 56.5 114.188C87.7117 114.188 113 89.0391 113 58C113 26.9609 87.7117 1.8125 56.5 1.8125ZM56.5 23.5625C67.5722 23.5625 76.5484 32.4891 76.5484 43.5C76.5484 54.5109 67.5722 63.4375 56.5 63.4375C45.4278 63.4375 36.4516 54.5109 36.4516 43.5C36.4516 32.4891 45.4278 23.5625 56.5 23.5625ZM56.5 101.5C43.1268 101.5 31.1433 95.4734 23.124 86.0484C27.4071 78.0281 35.7909 72.5 45.5645 72.5C46.1113 72.5 46.6581 72.5906 47.1821 72.7492C50.1438 73.7008 53.2421 74.3125 56.5 74.3125C59.7579 74.3125 62.879 73.7008 65.8179 72.7492C66.3419 72.5906 66.8887 72.5 67.4355 72.5C77.2091 72.5 85.5929 78.0281 89.876 86.0484C81.8567 95.4734 69.8732 101.5 56.5 101.5Z" fill="#232F95"/>
</svg>
